<mxfile host="Electron" modified="2024-04-05T11:19:40.061Z" agent="Mozilla/5.0 (Windows NT 10.0; Win64; x64) AppleWebKit/537.36 (KHTML, like Gecko) draw.io/22.1.11 Chrome/114.0.5735.289 Electron/25.9.8 Safari/537.36" etag="Vdx5yuY3fBuxV-O9d09k" version="22.1.11" type="device">
  <diagram id="kgpKYQtTHZ0yAKxKKP6v" name="Page-1">
    <mxGraphModel dx="1004" dy="744" grid="1" gridSize="10" guides="1" tooltips="1" connect="1" arrows="1" fold="1" page="1" pageScale="1" pageWidth="850" pageHeight="1100" math="0" shadow="0">
      <root>
        <mxCell id="0" />
        <mxCell id="1" parent="0" />
        <mxCell id="dLxeThP5IGCeZcF5y2Jn-1" value="ID" style="whiteSpace=wrap;html=1;align=center;fontSize=14;" parent="1" vertex="1">
          <mxGeometry x="434" y="80" width="66" height="40" as="geometry" />
        </mxCell>
        <mxCell id="dLxeThP5IGCeZcF5y2Jn-17" value="" style="ellipse;whiteSpace=wrap;html=1;aspect=fixed;fontSize=14;" parent="1" vertex="1">
          <mxGeometry x="120" y="40" width="80" height="80" as="geometry" />
        </mxCell>
        <mxCell id="dLxeThP5IGCeZcF5y2Jn-18" value="学" style="ellipse;whiteSpace=wrap;html=1;aspect=fixed;fontSize=14;" parent="1" vertex="1">
          <mxGeometry x="50" y="160" width="80" height="80" as="geometry" />
        </mxCell>
        <mxCell id="dLxeThP5IGCeZcF5y2Jn-19" value="中" style="ellipse;whiteSpace=wrap;html=1;aspect=fixed;fontSize=14;" parent="1" vertex="1">
          <mxGeometry x="200" y="160" width="80" height="80" as="geometry" />
        </mxCell>
        <mxCell id="dLxeThP5IGCeZcF5y2Jn-21" value="国" style="ellipse;whiteSpace=wrap;html=1;aspect=fixed;fontSize=14;" parent="1" vertex="1">
          <mxGeometry x="120" y="300" width="80" height="80" as="geometry" />
        </mxCell>
        <mxCell id="dLxeThP5IGCeZcF5y2Jn-22" value="人" style="ellipse;whiteSpace=wrap;html=1;aspect=fixed;fontSize=14;" parent="1" vertex="1">
          <mxGeometry x="120" y="440" width="80" height="80" as="geometry" />
        </mxCell>
        <mxCell id="dLxeThP5IGCeZcF5y2Jn-24" value="134" style="rounded=0;whiteSpace=wrap;html=1;fontSize=14;" parent="1" vertex="1">
          <mxGeometry x="434" y="160" width="66" height="40" as="geometry" />
        </mxCell>
        <mxCell id="dLxeThP5IGCeZcF5y2Jn-25" value="135" style="rounded=0;whiteSpace=wrap;html=1;fontSize=14;" parent="1" vertex="1">
          <mxGeometry x="434" y="200" width="66" height="40" as="geometry" />
        </mxCell>
        <mxCell id="dLxeThP5IGCeZcF5y2Jn-33" value="" style="curved=1;endArrow=classic;html=1;rounded=0;exitX=1.008;exitY=0.413;exitDx=0;exitDy=0;exitPerimeter=0;entryX=0;entryY=0.5;entryDx=0;entryDy=0;fontSize=14;" parent="1" source="dLxeThP5IGCeZcF5y2Jn-19" target="dLxeThP5IGCeZcF5y2Jn-24" edge="1">
          <mxGeometry width="50" height="50" relative="1" as="geometry">
            <mxPoint x="380" y="270" as="sourcePoint" />
            <mxPoint x="430" y="220" as="targetPoint" />
            <Array as="points">
              <mxPoint x="360" y="140" />
            </Array>
          </mxGeometry>
        </mxCell>
        <mxCell id="dLxeThP5IGCeZcF5y2Jn-34" value="136" style="rounded=0;whiteSpace=wrap;html=1;fontSize=14;" parent="1" vertex="1">
          <mxGeometry x="434" y="240" width="66" height="40" as="geometry" />
        </mxCell>
        <mxCell id="dLxeThP5IGCeZcF5y2Jn-35" value="" style="curved=1;endArrow=classic;html=1;rounded=0;exitX=1;exitY=0;exitDx=0;exitDy=0;entryX=0;entryY=0.5;entryDx=0;entryDy=0;fontSize=14;" parent="1" source="dLxeThP5IGCeZcF5y2Jn-21" target="dLxeThP5IGCeZcF5y2Jn-39" edge="1">
          <mxGeometry width="50" height="50" relative="1" as="geometry">
            <mxPoint x="360" y="320" as="sourcePoint" />
            <mxPoint x="410" y="270" as="targetPoint" />
            <Array as="points">
              <mxPoint x="330" y="250" />
            </Array>
          </mxGeometry>
        </mxCell>
        <mxCell id="dLxeThP5IGCeZcF5y2Jn-36" value="" style="endArrow=classic;html=1;rounded=0;exitX=1;exitY=1;exitDx=0;exitDy=0;entryX=0.5;entryY=0;entryDx=0;entryDy=0;fontSize=14;" parent="1" source="dLxeThP5IGCeZcF5y2Jn-17" target="dLxeThP5IGCeZcF5y2Jn-19" edge="1">
          <mxGeometry width="50" height="50" relative="1" as="geometry">
            <mxPoint x="-10" y="250" as="sourcePoint" />
            <mxPoint x="40" y="200" as="targetPoint" />
          </mxGeometry>
        </mxCell>
        <mxCell id="dLxeThP5IGCeZcF5y2Jn-37" value="" style="curved=1;endArrow=classic;html=1;rounded=0;exitX=1;exitY=0;exitDx=0;exitDy=0;entryX=0;entryY=0.5;entryDx=0;entryDy=0;fontSize=14;" parent="1" source="dLxeThP5IGCeZcF5y2Jn-23" target="dLxeThP5IGCeZcF5y2Jn-24" edge="1">
          <mxGeometry width="50" height="50" relative="1" as="geometry">
            <mxPoint x="288" y="342" as="sourcePoint" />
            <mxPoint x="400" y="300" as="targetPoint" />
            <Array as="points">
              <mxPoint x="320" y="250" />
              <mxPoint x="360" y="200" />
            </Array>
          </mxGeometry>
        </mxCell>
        <mxCell id="dLxeThP5IGCeZcF5y2Jn-38" value="137" style="rounded=0;whiteSpace=wrap;html=1;fontSize=14;" parent="1" vertex="1">
          <mxGeometry x="434" y="280" width="66" height="40" as="geometry" />
        </mxCell>
        <mxCell id="dLxeThP5IGCeZcF5y2Jn-39" value="138" style="rounded=0;whiteSpace=wrap;html=1;fontSize=14;" parent="1" vertex="1">
          <mxGeometry x="434" y="320" width="66" height="40" as="geometry" />
        </mxCell>
        <mxCell id="dLxeThP5IGCeZcF5y2Jn-40" value="" style="endArrow=classic;html=1;rounded=0;exitX=0;exitY=1;exitDx=0;exitDy=0;entryX=0.763;entryY=0.063;entryDx=0;entryDy=0;entryPerimeter=0;fontSize=14;" parent="1" source="dLxeThP5IGCeZcF5y2Jn-19" target="dLxeThP5IGCeZcF5y2Jn-21" edge="1">
          <mxGeometry width="50" height="50" relative="1" as="geometry">
            <mxPoint x="190" y="190" as="sourcePoint" />
            <mxPoint x="232" y="232" as="targetPoint" />
          </mxGeometry>
        </mxCell>
        <mxCell id="dLxeThP5IGCeZcF5y2Jn-41" value="" style="endArrow=classic;html=1;rounded=0;exitX=1;exitY=1;exitDx=0;exitDy=0;fontSize=14;" parent="1" source="dLxeThP5IGCeZcF5y2Jn-19" target="dLxeThP5IGCeZcF5y2Jn-23" edge="1">
          <mxGeometry width="50" height="50" relative="1" as="geometry">
            <mxPoint x="260" y="300" as="sourcePoint" />
            <mxPoint x="260" y="330" as="targetPoint" />
          </mxGeometry>
        </mxCell>
        <mxCell id="dLxeThP5IGCeZcF5y2Jn-42" value="" style="endArrow=classic;html=1;rounded=0;exitX=0.5;exitY=1;exitDx=0;exitDy=0;entryX=0.5;entryY=0;entryDx=0;entryDy=0;fontSize=14;" parent="1" source="dLxeThP5IGCeZcF5y2Jn-21" target="dLxeThP5IGCeZcF5y2Jn-22" edge="1">
          <mxGeometry width="50" height="50" relative="1" as="geometry">
            <mxPoint x="110" y="550" as="sourcePoint" />
            <mxPoint x="160" y="500" as="targetPoint" />
          </mxGeometry>
        </mxCell>
        <mxCell id="dLxeThP5IGCeZcF5y2Jn-43" value="" style="endArrow=classic;html=1;rounded=0;exitX=0;exitY=1;exitDx=0;exitDy=0;entryX=0.5;entryY=0;entryDx=0;entryDy=0;fontSize=14;" parent="1" source="dLxeThP5IGCeZcF5y2Jn-17" target="dLxeThP5IGCeZcF5y2Jn-18" edge="1">
          <mxGeometry width="50" height="50" relative="1" as="geometry">
            <mxPoint x="190" y="190" as="sourcePoint" />
            <mxPoint x="232" y="232" as="targetPoint" />
          </mxGeometry>
        </mxCell>
        <mxCell id="dLxeThP5IGCeZcF5y2Jn-23" value="华" style="ellipse;whiteSpace=wrap;html=1;aspect=fixed;fontSize=14;" parent="1" vertex="1">
          <mxGeometry x="263" y="300" width="80" height="80" as="geometry" />
        </mxCell>
        <mxCell id="dLxeThP5IGCeZcF5y2Jn-51" value="2414" style="rounded=0;whiteSpace=wrap;html=1;" parent="1" vertex="1">
          <mxGeometry x="355" y="700" width="100" height="40" as="geometry" />
        </mxCell>
        <mxCell id="dLxeThP5IGCeZcF5y2Jn-53" value="2415" style="rounded=0;whiteSpace=wrap;html=1;" parent="1" vertex="1">
          <mxGeometry x="355" y="740" width="100" height="40" as="geometry" />
        </mxCell>
        <mxCell id="dLxeThP5IGCeZcF5y2Jn-54" value="..." style="rounded=0;whiteSpace=wrap;html=1;" parent="1" vertex="1">
          <mxGeometry x="355" y="780" width="100" height="40" as="geometry" />
        </mxCell>
        <mxCell id="dLxeThP5IGCeZcF5y2Jn-55" value="2419" style="rounded=0;whiteSpace=wrap;html=1;" parent="1" vertex="1">
          <mxGeometry x="355" y="820" width="100" height="40" as="geometry" />
        </mxCell>
        <mxCell id="dLxeThP5IGCeZcF5y2Jn-56" value="..." style="rounded=0;whiteSpace=wrap;html=1;" parent="1" vertex="1">
          <mxGeometry x="355" y="660" width="100" height="40" as="geometry" />
        </mxCell>
        <mxCell id="dLxeThP5IGCeZcF5y2Jn-58" value="ID" style="rounded=0;whiteSpace=wrap;html=1;" parent="1" vertex="1">
          <mxGeometry x="355" y="620" width="100" height="40" as="geometry" />
        </mxCell>
        <mxCell id="dLxeThP5IGCeZcF5y2Jn-59" value="中华文明绵延数千年，有其独特的价值体系。" style="rounded=0;whiteSpace=wrap;html=1;align=left;" parent="1" vertex="1">
          <mxGeometry x="455" y="700" width="256" height="40" as="geometry" />
        </mxCell>
        <mxCell id="dLxeThP5IGCeZcF5y2Jn-61" value="中华优秀传统文化已经成为中华民族的基因，植根在中国人内心，潜移默化影响着中国人的思想方式和行为方式。" style="rounded=0;whiteSpace=wrap;html=1;align=left;" parent="1" vertex="1">
          <mxGeometry x="455" y="740" width="256" height="40" as="geometry" />
        </mxCell>
        <mxCell id="dLxeThP5IGCeZcF5y2Jn-62" value="..." style="rounded=0;whiteSpace=wrap;html=1;" parent="1" vertex="1">
          <mxGeometry x="455" y="780" width="256" height="40" as="geometry" />
        </mxCell>
        <mxCell id="dLxeThP5IGCeZcF5y2Jn-63" value="我们生而为中国人，最根本的是我们有中国人的独特精神世界，有百姓日用而不觉的价值观。" style="rounded=0;whiteSpace=wrap;html=1;align=left;" parent="1" vertex="1">
          <mxGeometry x="455" y="820" width="256" height="40" as="geometry" />
        </mxCell>
        <mxCell id="dLxeThP5IGCeZcF5y2Jn-64" value="..." style="rounded=0;whiteSpace=wrap;html=1;" parent="1" vertex="1">
          <mxGeometry x="455" y="660" width="256" height="40" as="geometry" />
        </mxCell>
        <mxCell id="dLxeThP5IGCeZcF5y2Jn-65" value="TEXT" style="rounded=0;whiteSpace=wrap;html=1;" parent="1" vertex="1">
          <mxGeometry x="455" y="620" width="256" height="40" as="geometry" />
        </mxCell>
        <mxCell id="dLxeThP5IGCeZcF5y2Jn-66" value="2420" style="rounded=0;whiteSpace=wrap;html=1;" parent="1" vertex="1">
          <mxGeometry x="355" y="860" width="100" height="40" as="geometry" />
        </mxCell>
        <mxCell id="dLxeThP5IGCeZcF5y2Jn-67" value="我们提倡的社会主义核心价值观，就充分体现了对中华优秀传统文化的传承和升华。" style="rounded=0;whiteSpace=wrap;html=1;align=left;" parent="1" vertex="1">
          <mxGeometry x="455" y="860" width="256" height="40" as="geometry" />
        </mxCell>
        <mxCell id="dLxeThP5IGCeZcF5y2Jn-68" value="..." style="rounded=0;whiteSpace=wrap;html=1;" parent="1" vertex="1">
          <mxGeometry x="355" y="900" width="100" height="40" as="geometry" />
        </mxCell>
        <mxCell id="dLxeThP5IGCeZcF5y2Jn-69" value="2419" style="rounded=0;whiteSpace=wrap;html=1;" parent="1" vertex="1">
          <mxGeometry x="355" y="940" width="100" height="40" as="geometry" />
        </mxCell>
        <mxCell id="dLxeThP5IGCeZcF5y2Jn-70" value="..." style="rounded=0;whiteSpace=wrap;html=1;" parent="1" vertex="1">
          <mxGeometry x="455" y="900" width="256" height="40" as="geometry" />
        </mxCell>
        <mxCell id="dLxeThP5IGCeZcF5y2Jn-71" value="要向全世界讲好中国历史故事。" style="rounded=0;whiteSpace=wrap;html=1;align=left;" parent="1" vertex="1">
          <mxGeometry x="455" y="940" width="256" height="40" as="geometry" />
        </mxCell>
        <mxCell id="dLxeThP5IGCeZcF5y2Jn-74" value="文档内偏移" style="whiteSpace=wrap;html=1;align=center;fontSize=14;" parent="1" vertex="1">
          <mxGeometry x="565" y="80" width="74" height="40" as="geometry" />
        </mxCell>
        <mxCell id="dLxeThP5IGCeZcF5y2Jn-75" value="0" style="rounded=0;whiteSpace=wrap;html=1;fontSize=14;" parent="1" vertex="1">
          <mxGeometry x="565" y="160" width="74" height="40" as="geometry" />
        </mxCell>
        <mxCell id="dLxeThP5IGCeZcF5y2Jn-76" value="22" style="rounded=0;whiteSpace=wrap;html=1;fontSize=14;" parent="1" vertex="1">
          <mxGeometry x="565" y="200" width="74" height="40" as="geometry" />
        </mxCell>
        <mxCell id="dLxeThP5IGCeZcF5y2Jn-77" value="0" style="rounded=0;whiteSpace=wrap;html=1;fontSize=14;" parent="1" vertex="1">
          <mxGeometry x="565" y="240" width="74" height="40" as="geometry" />
        </mxCell>
        <mxCell id="dLxeThP5IGCeZcF5y2Jn-78" value="12" style="rounded=0;whiteSpace=wrap;html=1;fontSize=14;" parent="1" vertex="1">
          <mxGeometry x="565" y="280" width="74" height="40" as="geometry" />
        </mxCell>
        <mxCell id="dLxeThP5IGCeZcF5y2Jn-79" value="23" style="rounded=0;whiteSpace=wrap;html=1;fontSize=14;" parent="1" vertex="1">
          <mxGeometry x="565" y="320" width="74" height="40" as="geometry" />
        </mxCell>
        <mxCell id="dLxeThP5IGCeZcF5y2Jn-80" value="139" style="rounded=0;whiteSpace=wrap;html=1;fontSize=14;" parent="1" vertex="1">
          <mxGeometry x="434" y="360" width="66" height="40" as="geometry" />
        </mxCell>
        <mxCell id="dLxeThP5IGCeZcF5y2Jn-81" value="36" style="rounded=0;whiteSpace=wrap;html=1;fontSize=14;" parent="1" vertex="1">
          <mxGeometry x="565" y="360" width="74" height="40" as="geometry" />
        </mxCell>
        <mxCell id="dLxeThP5IGCeZcF5y2Jn-82" value="140" style="rounded=0;whiteSpace=wrap;html=1;fontSize=14;" parent="1" vertex="1">
          <mxGeometry x="434" y="400" width="66" height="40" as="geometry" />
        </mxCell>
        <mxCell id="dLxeThP5IGCeZcF5y2Jn-83" value="17" style="rounded=0;whiteSpace=wrap;html=1;fontSize=14;" parent="1" vertex="1">
          <mxGeometry x="565" y="400" width="74" height="40" as="geometry" />
        </mxCell>
        <mxCell id="dLxeThP5IGCeZcF5y2Jn-84" value="141" style="rounded=0;whiteSpace=wrap;html=1;fontSize=14;" parent="1" vertex="1">
          <mxGeometry x="434" y="440" width="66" height="40" as="geometry" />
        </mxCell>
        <mxCell id="dLxeThP5IGCeZcF5y2Jn-85" value="5" style="rounded=0;whiteSpace=wrap;html=1;fontSize=14;" parent="1" vertex="1">
          <mxGeometry x="565" y="440" width="74" height="40" as="geometry" />
        </mxCell>
        <mxCell id="dLxeThP5IGCeZcF5y2Jn-86" value="" style="curved=1;endArrow=classic;html=1;rounded=0;exitX=1;exitY=0.5;exitDx=0;exitDy=0;entryX=0;entryY=0.5;entryDx=0;entryDy=0;fontSize=14;" parent="1" source="dLxeThP5IGCeZcF5y2Jn-22" target="dLxeThP5IGCeZcF5y2Jn-39" edge="1">
          <mxGeometry width="50" height="50" relative="1" as="geometry">
            <mxPoint x="270" y="470" as="sourcePoint" />
            <mxPoint x="320" y="420" as="targetPoint" />
            <Array as="points">
              <mxPoint x="350" y="450" />
            </Array>
          </mxGeometry>
        </mxCell>
        <mxCell id="dLxeThP5IGCeZcF5y2Jn-87" value="内容" style="whiteSpace=wrap;html=1;align=center;fontSize=14;" parent="1" vertex="1">
          <mxGeometry x="639" y="80" width="148" height="40" as="geometry" />
        </mxCell>
        <mxCell id="dLxeThP5IGCeZcF5y2Jn-88" value="中华优秀传统文化已经..." style="rounded=0;whiteSpace=wrap;html=1;align=left;fontSize=14;" parent="1" vertex="1">
          <mxGeometry x="639" y="160" width="148" height="40" as="geometry" />
        </mxCell>
        <mxCell id="dLxeThP5IGCeZcF5y2Jn-89" value="中华优秀传统文化的..." style="rounded=0;whiteSpace=wrap;html=1;align=left;fontSize=14;" parent="1" vertex="1">
          <mxGeometry x="639" y="200" width="148" height="40" as="geometry" />
        </mxCell>
        <mxCell id="dLxeThP5IGCeZcF5y2Jn-90" value="中华文明..." style="rounded=0;whiteSpace=wrap;html=1;align=left;fontSize=14;" parent="1" vertex="1">
          <mxGeometry x="639" y="240" width="148" height="40" as="geometry" />
        </mxCell>
        <mxCell id="dLxeThP5IGCeZcF5y2Jn-91" value="中华民族..." style="rounded=0;whiteSpace=wrap;html=1;align=left;fontSize=14;" parent="1" vertex="1">
          <mxGeometry x="639" y="280" width="148" height="40" as="geometry" />
        </mxCell>
        <mxCell id="dLxeThP5IGCeZcF5y2Jn-92" value="中国人内心..." style="rounded=0;whiteSpace=wrap;html=1;align=left;fontSize=14;" parent="1" vertex="1">
          <mxGeometry x="639" y="320" width="148" height="40" as="geometry" />
        </mxCell>
        <mxCell id="dLxeThP5IGCeZcF5y2Jn-93" value="中国人的思想..." style="rounded=0;whiteSpace=wrap;html=1;align=left;fontSize=14;" parent="1" vertex="1">
          <mxGeometry x="639" y="360" width="148" height="40" as="geometry" />
        </mxCell>
        <mxCell id="dLxeThP5IGCeZcF5y2Jn-94" value="中国人的独特精神世界..," style="rounded=0;whiteSpace=wrap;html=1;align=left;fontSize=14;" parent="1" vertex="1">
          <mxGeometry x="639" y="400" width="148" height="40" as="geometry" />
        </mxCell>
        <mxCell id="dLxeThP5IGCeZcF5y2Jn-95" value="中国人，..." style="rounded=0;whiteSpace=wrap;html=1;align=left;fontSize=14;" parent="1" vertex="1">
          <mxGeometry x="639" y="440" width="148" height="40" as="geometry" />
        </mxCell>
        <mxCell id="dLxeThP5IGCeZcF5y2Jn-97" value="142" style="rounded=0;whiteSpace=wrap;html=1;fontSize=14;" parent="1" vertex="1">
          <mxGeometry x="434" y="480" width="66" height="40" as="geometry" />
        </mxCell>
        <mxCell id="dLxeThP5IGCeZcF5y2Jn-98" value="7" style="rounded=0;whiteSpace=wrap;html=1;fontSize=14;" parent="1" vertex="1">
          <mxGeometry x="565" y="480" width="74" height="40" as="geometry" />
        </mxCell>
        <mxCell id="dLxeThP5IGCeZcF5y2Jn-99" value="中国历史故事。" style="rounded=0;whiteSpace=wrap;html=1;align=left;fontSize=14;" parent="1" vertex="1">
          <mxGeometry x="639" y="480" width="148" height="40" as="geometry" />
        </mxCell>
        <mxCell id="Xe77bk4C7D_hDonBxxjW-1" value="文档ID" style="whiteSpace=wrap;html=1;align=center;fontSize=14;" parent="1" vertex="1">
          <mxGeometry x="500" y="80" width="66" height="40" as="geometry" />
        </mxCell>
        <mxCell id="Xe77bk4C7D_hDonBxxjW-2" value="2415" style="rounded=0;whiteSpace=wrap;html=1;fontSize=14;" parent="1" vertex="1">
          <mxGeometry x="500" y="160" width="66" height="40" as="geometry" />
        </mxCell>
        <mxCell id="Xe77bk4C7D_hDonBxxjW-3" value="2420" style="rounded=0;whiteSpace=wrap;html=1;fontSize=14;" parent="1" vertex="1">
          <mxGeometry x="500" y="200" width="66" height="40" as="geometry" />
        </mxCell>
        <mxCell id="Xe77bk4C7D_hDonBxxjW-4" value="2414" style="rounded=0;whiteSpace=wrap;html=1;fontSize=14;" parent="1" vertex="1">
          <mxGeometry x="500" y="240" width="66" height="40" as="geometry" />
        </mxCell>
        <mxCell id="Xe77bk4C7D_hDonBxxjW-5" value="2415" style="rounded=0;whiteSpace=wrap;html=1;fontSize=14;" parent="1" vertex="1">
          <mxGeometry x="500" y="280" width="66" height="40" as="geometry" />
        </mxCell>
        <mxCell id="Xe77bk4C7D_hDonBxxjW-6" value="2415" style="rounded=0;whiteSpace=wrap;html=1;fontSize=14;" parent="1" vertex="1">
          <mxGeometry x="500" y="320" width="66" height="40" as="geometry" />
        </mxCell>
        <mxCell id="Xe77bk4C7D_hDonBxxjW-7" value="2415" style="rounded=0;whiteSpace=wrap;html=1;fontSize=14;" parent="1" vertex="1">
          <mxGeometry x="500" y="360" width="66" height="40" as="geometry" />
        </mxCell>
        <mxCell id="Xe77bk4C7D_hDonBxxjW-8" value="2419" style="rounded=0;whiteSpace=wrap;html=1;fontSize=14;" parent="1" vertex="1">
          <mxGeometry x="500" y="400" width="66" height="40" as="geometry" />
        </mxCell>
        <mxCell id="Xe77bk4C7D_hDonBxxjW-9" value="2419" style="rounded=0;whiteSpace=wrap;html=1;fontSize=14;" parent="1" vertex="1">
          <mxGeometry x="500" y="440" width="66" height="40" as="geometry" />
        </mxCell>
        <mxCell id="Xe77bk4C7D_hDonBxxjW-10" value="1447" style="rounded=0;whiteSpace=wrap;html=1;fontSize=14;" parent="1" vertex="1">
          <mxGeometry x="500" y="480" width="66" height="40" as="geometry" />
        </mxCell>
        <mxCell id="Xe77bk4C7D_hDonBxxjW-11" value="134，142" style="rounded=0;whiteSpace=wrap;html=1;fontSize=14;" parent="1" vertex="1">
          <mxGeometry x="230" y="220" width="77" height="40" as="geometry" />
        </mxCell>
        <mxCell id="Xe77bk4C7D_hDonBxxjW-12" value="138，142" style="rounded=0;whiteSpace=wrap;html=1;fontSize=14;" parent="1" vertex="1">
          <mxGeometry x="170" y="360" width="77" height="40" as="geometry" />
        </mxCell>
        <mxCell id="Xe77bk4C7D_hDonBxxjW-13" value="138，141" style="rounded=0;whiteSpace=wrap;html=1;fontSize=14;" parent="1" vertex="1">
          <mxGeometry x="170" y="490" width="77" height="40" as="geometry" />
        </mxCell>
        <mxCell id="Xe77bk4C7D_hDonBxxjW-14" value="134，137" style="rounded=0;whiteSpace=wrap;html=1;fontSize=14;" parent="1" vertex="1">
          <mxGeometry x="300" y="360" width="77" height="40" as="geometry" />
        </mxCell>
        <mxCell id="8N_4IgcPzm4mtB6x7_Qe-1" value="..." style="whiteSpace=wrap;html=1;align=center;fontSize=14;" vertex="1" parent="1">
          <mxGeometry x="434" y="120" width="66" height="40" as="geometry" />
        </mxCell>
        <mxCell id="8N_4IgcPzm4mtB6x7_Qe-2" value="..." style="whiteSpace=wrap;html=1;align=center;fontSize=14;" vertex="1" parent="1">
          <mxGeometry x="565" y="120" width="74" height="40" as="geometry" />
        </mxCell>
        <mxCell id="8N_4IgcPzm4mtB6x7_Qe-3" value="..." style="whiteSpace=wrap;html=1;align=center;fontSize=14;" vertex="1" parent="1">
          <mxGeometry x="639" y="120" width="148" height="40" as="geometry" />
        </mxCell>
        <mxCell id="8N_4IgcPzm4mtB6x7_Qe-4" value="..." style="whiteSpace=wrap;html=1;align=center;fontSize=14;" vertex="1" parent="1">
          <mxGeometry x="500" y="120" width="66" height="40" as="geometry" />
        </mxCell>
        <mxCell id="8N_4IgcPzm4mtB6x7_Qe-5" value="..." style="whiteSpace=wrap;html=1;align=center;fontSize=14;" vertex="1" parent="1">
          <mxGeometry x="434" y="520" width="66" height="40" as="geometry" />
        </mxCell>
        <mxCell id="8N_4IgcPzm4mtB6x7_Qe-6" value="..." style="whiteSpace=wrap;html=1;align=center;fontSize=14;" vertex="1" parent="1">
          <mxGeometry x="565" y="520" width="74" height="40" as="geometry" />
        </mxCell>
        <mxCell id="8N_4IgcPzm4mtB6x7_Qe-7" value="..." style="whiteSpace=wrap;html=1;align=center;fontSize=14;" vertex="1" parent="1">
          <mxGeometry x="639" y="520" width="148" height="40" as="geometry" />
        </mxCell>
        <mxCell id="8N_4IgcPzm4mtB6x7_Qe-8" value="..." style="whiteSpace=wrap;html=1;align=center;fontSize=14;" vertex="1" parent="1">
          <mxGeometry x="500" y="520" width="66" height="40" as="geometry" />
        </mxCell>
      </root>
    </mxGraphModel>
  </diagram>
</mxfile>
